<?xml version="1.0" standalone="no"?>
<!DOCTYPE svg PUBLIC "-//W3C//DTD SVG 20010904//EN"
 "http://www.w3.org/TR/2001/REC-SVG-20010904/DTD/svg10.dtd">
<svg version="1.0" xmlns="http://www.w3.org/2000/svg"
 width="1600.000000pt" height="1600.000000pt" viewBox="0 0 1600.000000 1600.000000"
 preserveAspectRatio="xMidYMid meet">
<metadata>
Created by potrace 1.11, written by Peter Selinger 2001-2013
</metadata>
<g transform="translate(0.000000,1600.000000) scale(0.100000,-0.100000)"
fill="#000000" stroke="none">
<path d="M4280 13000 l0 -2500 250 0 250 0 0 -250 0 -250 250 0 250 0 0 -250
0 -250 -250 0 -250 0 0 -250 0 -250 -750 0 -750 0 0 -250 0 -250 -250 0 -250
0 0 -1500 0 -1500 250 0 250 0 0 -250 0 -250 -250 0 -250 0 0 -250 0 -250
-250 0 -250 0 0 -250 0 -250 250 0 250 0 0 -250 0 -250 750 0 750 0 0 -1000 0
-1000 -250 0 -250 0 0 -750 0 -750 1500 0 1500 0 0 750 0 750 -250 0 -250 0 0
500 0 500 250 0 250 0 0 250 0 250 250 0 250 0 0 250 0 250 500 0 500 0 0
-250 0 -250 250 0 250 0 0 -250 0 -250 250 0 250 0 0 -500 0 -500 -250 0 -250
0 0 -750 0 -750 1750 0 1750 0 0 750 0 750 -250 0 -250 0 0 1000 0 1000 750 0
750 0 0 250 0 250 250 0 250 0 0 250 0 250 -250 0 -250 0 0 250 0 250 -250 0
-250 0 0 250 0 250 250 0 250 0 0 1500 0 1500 -250 0 -250 0 0 250 0 250 -750
0 -750 0 0 250 0 250 -250 0 -250 0 0 250 0 250 250 0 250 0 0 250 0 250 250
0 250 0 0 2500 0 2500 -1250 0 -1250 0 0 -750 0 -750 -1250 0 -1250 0 0 750 0
750 -1250 0 -1250 0 0 -2500z"/>
</g>
</svg>
