<svg width="150" height="45" viewBox="0 0 150 45" fill="none" xmlns="http://www.w3.org/2000/svg">
    <path d="M15.2938 17.237C18.5755 17.237 20.9177 18.0637 22.3206 19.717C23.3477 20.9696 23.8613 22.5353 23.8613 24.4141C23.8613 25.0905 23.7986 25.8045 23.6734 26.556L22.2079 34.9356C21.7069 37.7664 20.4793 40.0336 18.5254 41.7371C16.5714 43.4405 14.0412 44.2923 10.9348 44.2923H0L4.77225 17.237H15.2938ZM12.9264 23.099H10.4839L7.81597 38.4303H11.3858C12.5632 38.4303 13.4775 38.1172 14.1289 37.4909C14.8053 36.8395 15.2687 35.7874 15.5192 34.3344L16.6089 28.1718C16.7091 27.6207 16.7592 27.1197 16.7592 26.6688C16.7592 24.2889 15.4816 23.099 12.9264 23.099Z" fill="#FE6E00"/>
    <path d="M32.8401 44.8183C27.6294 44.8183 25.0241 43.0147 25.0241 39.4073C25.0241 38.9063 25.0742 38.3677 25.1744 37.7915L25.9635 33.132C26.3894 30.727 27.4916 28.8858 29.2703 27.6082C31.0739 26.3055 33.4538 25.6542 36.4099 25.6542C41.4451 25.6542 43.9628 27.5581 43.9628 31.3659C43.9628 31.917 43.9127 32.5182 43.8125 33.1695L43.3616 35.8375H31.9006L31.7503 36.7018C31.7002 37.0024 31.6752 37.2779 31.6752 37.5284C31.6752 38.9063 32.4893 39.5952 34.1177 39.5952C34.7189 39.5952 35.2324 39.4073 35.6583 39.0315C36.0842 38.6558 36.3347 38.2174 36.4099 37.7163L42.6476 37.7915C41.8209 42.4761 38.5517 44.8183 32.8401 44.8183ZM37.3493 33.5453C37.4495 33.1194 37.4996 32.7311 37.4996 32.3804C37.4996 32.0047 37.3367 31.6289 37.0111 31.2531C36.6854 30.8774 36.1593 30.6895 35.4329 30.6895C34.7314 30.6895 34.0801 30.9275 33.4789 31.4034C32.9027 31.8794 32.5019 32.5934 32.2764 33.5453H37.3493Z" fill="#FE6E00"/>
    <path d="M52.4798 38.5054C52.4798 39.1568 52.8055 39.4824 53.4568 39.4824C54.1332 39.4824 55.3007 38.9918 55.7516 38.7413L54.9599 43.3529C53.7574 44.3298 52.4046 44.8183 50.9016 44.8183C48.6219 44.8183 47.1439 44.2923 46.4675 43.2401C46.0416 42.5637 45.8287 41.8247 45.8287 41.0231C45.8287 40.2215 45.8788 39.52 45.979 38.9188L50.0749 15.7715H56.4629L52.5174 38.0545C52.4923 38.2048 52.4798 38.3551 52.4798 38.5054Z" fill="#FE6E00"/>
    <path d="M66.5266 39.4824C67.1027 39.4824 68.224 38.9918 68.675 38.7413L67.8793 43.3529C66.7019 44.3298 65.3617 44.8183 63.8586 44.8183C61.5789 44.8183 60.1009 44.2923 59.4245 43.2401C58.9736 42.5387 58.7482 41.7997 58.7482 41.0231C58.7482 40.2215 58.7983 39.52 58.8985 38.9188L61.1531 26.2178H67.5411L65.4368 38.0545C65.4118 38.2048 65.3992 38.3426 65.3992 38.4679C65.3992 39.1443 65.775 39.4824 66.5266 39.4824Z" fill="#FE6E00"/>
    <path d="M85.9717 17.237L89.9924 30.201L98.6351 17.237H105.737L100.965 44.2923H94.1635L96.869 29.0361L91.0822 38.1297H86.1596L83.6044 29.0361L80.8989 44.2923H74.135L78.9073 17.237H85.9717Z" fill="#FE6E00"/>
    <path d="M123.069 38.5054C123.069 39.1568 123.395 39.4824 124.046 39.4824C124.722 39.4824 125.887 39.0072 126.338 38.7567L125.549 43.3529C124.347 44.3298 122.994 44.8183 121.491 44.8183C118.735 44.8183 117.207 43.8163 116.907 41.8122C115.654 43.8163 113.813 44.8183 111.383 44.8183C107.274 44.8183 105.22 43.0522 105.22 39.52C105.22 38.9188 105.283 38.2549 105.408 37.5284L106.197 33.132C106.598 30.8774 107.512 29.0862 108.94 27.7585C110.393 26.4057 112.272 25.7293 114.577 25.7293C116.907 25.7293 118.485 26.2679 119.311 27.3451L119.499 26.2178H125.211L123.107 38.0545C123.082 38.2048 123.069 38.3551 123.069 38.5054ZM111.946 36.7018C111.896 36.9272 111.871 37.2404 111.871 37.6412C111.871 38.042 112.059 38.4428 112.435 38.8436C112.811 39.2194 113.437 39.4073 114.314 39.4073C115.216 39.4073 115.992 39.0566 116.643 38.3551L117.771 32.0422C117.495 31.416 116.844 31.1028 115.817 31.1028C113.888 31.1028 112.761 32.0297 112.435 33.8835L111.946 36.7018Z" fill="#FE6E00"/>
    <path d="M141.258 32.7562C141.258 31.679 140.732 31.1404 139.68 31.1404C138.652 31.1404 137.801 31.5287 137.124 32.3053L135.02 44.2923H128.632L131.826 26.2178H137.763L137.35 28.4349C138.828 26.6061 140.694 25.6918 142.949 25.6918C145.203 25.6918 146.669 26.2429 147.345 27.3451C147.771 28.0466 147.984 28.8482 147.984 29.7501C147.984 30.6519 147.921 31.4911 147.796 32.2677L146.782 38.0545C146.757 38.2048 146.744 38.3426 146.744 38.4679C146.744 39.1443 147.12 39.4824 147.871 39.4824C148.448 39.4824 149.549 39.0072 150 38.7567L149.224 43.3529C148.047 44.3298 146.706 44.8183 145.203 44.8183C141.796 44.8183 140.093 43.3904 140.093 40.5346C140.093 40.0336 140.143 39.495 140.243 38.9188L141.145 33.9211C141.22 33.4702 141.258 33.0819 141.258 32.7562Z" fill="#FE6E00"/>
    <path d="M58.3784 21.0937H78.1067L75.1475 37.7467L97.6941 0.891602L58.3784 21.0937Z" fill="url(#paint0_linear)"/>
    <defs>
        <linearGradient id="paint0_linear" x1="52.5" y1="21.8916" x2="108.75" y2="-1.3584" gradientUnits="userSpaceOnUse">
            <stop stop-color="#151522"/>
            <stop offset="1" stop-color="#666666"/>
        </linearGradient>
    </defs>
</svg>